<?xml version="1.0" encoding="utf-8"?>
<!-- Generator: Adobe Illustrator 22.1.0, SVG Export Plug-In . SVG Version: 6.00 Build 0)  -->
<svg version="1.1" xmlns="http://www.w3.org/2000/svg" xmlns:xlink="http://www.w3.org/1999/xlink" x="0px" y="0px"
	 viewBox="0 0 239.6 38.4" style="enable-background:new 0 0 239.6 38.4;" xml:space="preserve">
<style type="text/css">
	.st0{fill:#FFFFFF;}
</style>
<g id="Layer_1">
	<g>
		<path class="st0" d="M28,0.6c-7.7,0-15.8,1.7-23.9,4C3,4.8,2,5.5,1.5,6.3C1,7.1,0.8,7.9,0.6,8.8c-0.8,4.4-0.7,8.8-0.5,13.6
			c0,1.1,0.2,2.4,0.7,3.2c0.5,0.8,1.5,1.3,2.6,1.5c1.4,0.2,2.8,0.4,4.2,0.5l-0.3,8.7c-0.1,0.7,0.3,1.3,0.7,1.6
			c0.4,0.3,0.8,0.4,1.2,0.4c0.9,0.1,1.9-0.3,2.4-1.3c2.2-4.2,3.6-6.1,6.3-8.9c7.2,0.2,13.4-0.2,20.5-0.8c2.5-0.1,4.2-2.1,4.7-3.7
			c1.4-4.2,1.6-9.5,1.7-14.7c0.1-2.1-0.7-4.2-2-5.2c-1.2-1-2.7-1.3-4.1-1.7C35,1.1,31.3,0.7,28,0.6z M38.3,4
			c1.4,0.4,2.6,0.7,3.3,1.3c1.3,1.3,1.2,2.2,1.2,3.7c-0.1,5.1-0.4,10.1-1.5,13.9c-0.5,1.4-1.4,2.4-3,2.6c-7.2,0.5-13.5,0.9-20.7,0.7
			c-0.3,0-0.6,0.1-0.8,0.3c-3,3.1-4.6,5.2-6.9,9.7c-0.1,0.1-0.2,0.2-0.3,0.2c-0.1,0-0.1-0.1-0.1-0.2l0.3-9.4c0-0.5-0.4-1-0.9-1
			c-1.7-0.2-3.4-0.4-5.1-0.6c-0.7-0.1-1-0.3-1.2-0.6c-0.3-0.8-0.3-1.3-0.4-2.1C2,17.5,1.9,13.3,2.6,9.2c0.1-0.6,0.3-1.2,0.5-1.8
			c0.4-0.6,1-0.7,1.6-0.9c8-2.2,15.7-3.8,23.1-3.8C31.5,2.8,35.3,3.2,38.3,4z M10.8,12c-1.1,1.3-1,3.1-0.1,4.3
			c0.4,0.6,1.1,1.1,2,1.2c1.1,0.1,1.8-0.4,2.5-0.9c1.3-1.2,1.5-3.2,0.5-4.7c-0.5-0.8-1.4-1.2-2.2-1.2C12.2,10.8,11.4,11.3,10.8,12
			L10.8,12z M22.6,11c-1.1,0-2,0.8-2.5,1.6c-0.6,0.9-1,2.1-0.5,3.3c1,2.2,4.3,2.2,5.6-0.1c0.6-1,0.5-2.2,0-3.1
			c-0.5-0.9-1.1-1.5-2.1-1.7C22.9,11,22.8,11,22.6,11z M32.3,11.2c-0.3,0-0.7,0-1,0.1c-1.3,0.4-2.4,1.7-2.3,3.4
			c0.1,0.9,0.5,1.7,1.2,2.3c0.7,0.6,1.8,0.9,2.9,0.6c1.3-0.3,2.1-1.3,2.3-2.3s0.2-2-0.4-2.8C34.3,11.7,33.3,11.2,32.3,11.2
			L32.3,11.2z M13.3,12.8c0.2,0,0.4,0.1,0.6,0.4c0.4,0.6,0.3,1.6-0.1,2c-0.4,0.4-0.7,0.4-0.9,0.4c-0.2,0-0.4-0.2-0.6-0.4
			c-0.3-0.5-0.4-1.3,0-1.8C12.5,13,13,12.8,13.3,12.8L13.3,12.8z M22.8,13c0,0,0.5,0.3,0.7,0.6c0.2,0.4,0.2,0.7,0,1.1
			c-0.6,1-1.8,0.7-2,0.3c-0.1-0.2,0-0.8,0.3-1.3C22.2,13.2,22.6,13,22.8,13L22.8,13z M33.3,13.8c0.1,0.1,0.2,0.6,0.1,1.1
			c-0.1,0.4-0.3,0.7-0.8,0.8c-0.6,0.1-0.9,0-1.2-0.2c-0.3-0.2-0.4-0.6-0.5-0.9c-0.1-0.9,0.2-1.1,0.8-1.3
			C32.4,13.1,33.1,13.4,33.3,13.8z"/>
		<path class="st0" d="M57.6,4.8c0-0.3,0.1-0.5,0.3-0.7c0.2-0.2,0.4-0.3,0.7-0.3h6.8c0.2,0,0.5,0.1,0.7,0.3c0.2,0.2,0.4,0.4,0.4,0.7
			v10.9h11.4V4.8c0-0.3,0.1-0.5,0.3-0.7c0.2-0.2,0.4-0.3,0.8-0.3h6.7c0.3,0,0.6,0.1,0.8,0.2c0.2,0.1,0.3,0.4,0.3,0.7v32.2
			c0,0.3-0.1,0.6-0.3,0.8c-0.2,0.2-0.5,0.3-0.8,0.3H79c-0.3,0-0.6-0.1-0.8-0.3s-0.3-0.4-0.3-0.8V23.8H66.5v13.1
			c0,0.3-0.1,0.6-0.3,0.8s-0.5,0.3-0.8,0.3h-6.8c-0.6,0-1-0.3-1-0.9C57.6,37,57.6,4.8,57.6,4.8z M120.5,37.5
			c-0.2,0.2-0.4,0.3-0.6,0.3c-0.2,0-0.4,0.1-0.6,0.1h-3.5c-0.3,0-0.5,0-0.7-0.2c-0.2-0.1-0.4-0.2-0.5-0.4c-0.1-0.2-0.3-0.4-0.3-0.6
			c-0.1-0.2-0.2-0.4-0.2-0.7l-0.7-2.9c-0.2,0.5-0.6,1-1,1.6c-0.5,0.6-1,1.2-1.7,1.7c-0.7,0.5-1.5,1-2.4,1.3s-2,0.5-3.2,0.5
			c-1.8,0-3.3-0.3-4.8-1c-1.4-0.7-2.6-1.6-3.6-2.8c-1-1.2-1.8-2.5-2.3-4.1c-0.6-1.5-0.8-3.2-0.8-5v-15c0-0.6,0.1-1,0.4-1.3
			s0.7-0.4,1.2-0.4h5.3c0.7,0,1.1,0.1,1.4,0.3s0.4,0.6,0.4,1.3v15c0,0.7,0.2,1.3,0.4,1.9c0.3,0.6,0.7,1.1,1.2,1.6
			c0.5,0.5,1,0.8,1.7,1.1c0.6,0.3,1.3,0.4,1.9,0.4c0.6,0,1.1-0.1,1.7-0.4s1.1-0.6,1.6-1c0.5-0.4,0.9-1,1.2-1.5
			c0.3-0.6,0.5-1.2,0.5-1.9V10.4c0-0.3,0.1-0.5,0.2-0.8s0.3-0.5,0.4-0.6c0.2-0.1,0.4-0.2,0.6-0.3s0.4-0.1,0.6-0.1h5.2
			c0.7,0,1.1,0.2,1.4,0.5s0.4,0.8,0.4,1.3v25.7c0,0.3-0.1,0.6-0.2,0.8s-0.3,0.4-0.5,0.6C120.3,37.5,120.5,37.5,120.5,37.5z
			 M147.2,34.3c-0.4,0.4-0.9,0.9-1.4,1.3s-1.1,0.9-1.6,1.3c-0.6,0.4-1.3,0.8-1.9,1c-0.7,0.3-1.5,0.4-2.2,0.4c-2.1,0-4-0.4-5.8-1.2
			c-1.7-0.8-3.3-1.8-4.5-3.2c-1.3-1.4-2.3-3-3-4.8s-1.1-3.8-1.1-5.9c0-2.1,0.4-4.1,1.1-5.9s1.7-3.4,3-4.8c1.3-1.4,2.8-2.4,4.5-3.2
			c1.8-0.8,3.7-1.2,5.8-1.2c0.8,0,1.6,0.1,2.3,0.4c0.7,0.2,1.3,0.6,1.9,0.9c0.6,0.4,1.1,0.8,1.6,1.3c0.5,0.5,0.9,0.9,1.4,1.4V1.8
			c0-0.5,0.1-0.9,0.4-1.2S148.4,0,149,0h5.2c0.2,0,0.4,0,0.6,0.1s0.4,0.2,0.6,0.4c0.2,0.1,0.3,0.3,0.4,0.5c0.1,0.2,0.2,0.5,0.2,0.7
			v34.3c0,1.2-0.6,1.8-1.9,1.8h-4.5c-0.3,0-0.5,0-0.7-0.1c-0.2-0.1-0.3-0.2-0.4-0.3c-0.1-0.2-0.2-0.3-0.3-0.5
			c-0.1-0.3-0.2-0.5-0.3-0.8L147.2,34.3L147.2,34.3z M133.9,23.3c0,1,0.1,1.9,0.5,2.8c0.3,0.9,0.8,1.6,1.4,2.3
			c0.6,0.6,1.3,1.2,2.1,1.5c0.8,0.4,1.7,0.6,2.7,0.6c1,0,1.9-0.2,2.8-0.5c0.8-0.3,1.6-0.8,2.3-1.5c0.6-0.6,1.2-1.4,1.6-2.2
			c0.4-0.8,0.6-1.8,0.6-2.7v-0.3c0-1-0.2-1.9-0.6-2.8c-0.4-0.9-0.9-1.7-1.5-2.3c-0.6-0.7-1.4-1.2-2.3-1.6c-0.9-0.4-1.9-0.6-2.9-0.6
			c-1,0-1.9,0.2-2.7,0.6c-0.8,0.4-1.5,0.9-2.1,1.6c-0.6,0.7-1.1,1.5-1.4,2.3C134.1,21.4,133.9,22.4,133.9,23.3L133.9,23.3z
			 M182.7,34.3c-0.4,0.4-0.9,0.9-1.4,1.3s-1.1,0.9-1.6,1.3c-0.6,0.4-1.3,0.8-1.9,1c-0.7,0.3-1.5,0.4-2.2,0.4c-2.1,0-4-0.4-5.8-1.2
			c-1.7-0.8-3.3-1.8-4.5-3.2c-1.3-1.4-2.3-3-3-4.8s-1.1-3.8-1.1-5.9c0-2.1,0.4-4.1,1.1-5.9s1.7-3.4,3-4.8c1.3-1.4,2.8-2.4,4.5-3.2
			c1.8-0.8,3.7-1.2,5.8-1.2c0.8,0,1.6,0.1,2.3,0.4c0.7,0.2,1.3,0.6,1.9,0.9c0.6,0.4,1.1,0.8,1.6,1.3c0.5,0.5,0.9,0.9,1.4,1.4V1.8
			c0-0.5,0.1-0.9,0.4-1.2s0.8-0.5,1.4-0.5h5.2c0.2,0,0.4,0,0.6,0.1s0.4,0.2,0.6,0.4c0.2,0.1,0.3,0.3,0.4,0.5
			c0.1,0.2,0.2,0.5,0.2,0.7v34.3c0,1.2-0.6,1.8-1.9,1.8h-4.5c-0.3,0-0.5,0-0.7-0.1c-0.2-0.1-0.3-0.2-0.4-0.3
			c-0.1-0.2-0.2-0.3-0.3-0.5c-0.1-0.3-0.2-0.5-0.4-0.8L182.7,34.3L182.7,34.3z M169.5,23.3c0,1,0.1,1.9,0.5,2.8
			c0.3,0.9,0.8,1.6,1.4,2.3c0.6,0.6,1.3,1.2,2.1,1.5c0.8,0.4,1.7,0.6,2.7,0.6c1,0,1.9-0.2,2.8-0.5c0.8-0.3,1.6-0.8,2.3-1.5
			c0.6-0.6,1.2-1.4,1.6-2.2c0.4-0.8,0.6-1.8,0.7-2.7v-0.3c0-1-0.2-1.9-0.6-2.8c-0.4-0.9-0.9-1.7-1.5-2.3c-0.6-0.7-1.4-1.2-2.3-1.6
			c-0.9-0.4-1.9-0.6-2.9-0.6c-1,0-1.9,0.2-2.7,0.6c-0.8,0.4-1.5,0.9-2.1,1.6c-0.6,0.7-1.1,1.5-1.4,2.3
			C169.6,21.4,169.4,22.4,169.5,23.3L169.5,23.3z M197.6,1.8c0-0.5,0.1-0.9,0.4-1.2s0.7-0.5,1.3-0.5h5.6c0.1,0,0.3,0,0.5,0.1
			c0.2,0.1,0.3,0.2,0.5,0.4c0.1,0.1,0.3,0.3,0.4,0.5c0.1,0.2,0.1,0.5,0.1,0.7v34.3c0,0.6-0.2,1-0.5,1.3s-0.8,0.5-1.3,0.5h-5.3
			c-0.6,0-1-0.2-1.3-0.5c-0.2-0.3-0.4-0.7-0.4-1.3L197.6,1.8L197.6,1.8z M236.3,34.4c-1.3,1.2-2.9,2.2-4.6,2.9
			c-1.7,0.7-3.5,1.1-5.4,1c-2.1,0-4.1-0.4-5.9-1.2c-1.8-0.7-3.5-1.8-4.9-3.2c-1.4-1.4-2.6-3-3.4-4.8c-0.8-1.8-1.2-3.8-1.2-6
			c0-1.4,0.2-2.6,0.5-3.9c0.3-1.2,0.8-2.4,1.4-3.6c0.6-1.1,1.4-2.1,2.2-3.1s1.8-1.7,2.9-2.4c1.1-0.7,2.3-1.2,3.5-1.5
			c1.3-0.4,2.6-0.6,4-0.6c1.3,0,2.5,0.2,3.7,0.5c1.2,0.3,2.3,0.8,3.4,1.4c1.1,0.6,2,1.4,2.9,2.2c0.9,0.8,1.6,1.8,2.3,2.8
			s1.1,2.1,1.5,3.3c0.3,1.2,0.5,2.4,0.5,3.6c0,0.8,0,1.5,0,2c0,0.5-0.1,0.9-0.4,1.2c-0.2,0.3-0.6,0.5-1.1,0.6
			c-0.5,0.1-1.2,0.2-2.2,0.2h-16.6c0.1,1,0.5,1.8,0.9,2.5c0.4,0.6,1,1.2,1.6,1.6c0.6,0.4,1.3,0.7,1.9,0.8c0.6,0.2,1.3,0.3,1.9,0.3
			c0.6,0,1.1-0.1,1.7-0.2c0.6-0.1,1.1-0.3,1.7-0.5c0.5-0.2,1-0.4,1.5-0.7c0.4-0.3,0.8-0.5,1.1-0.8c0.2-0.2,0.5-0.4,0.6-0.5
			c0.2-0.1,0.4-0.1,0.6-0.1s0.4,0.1,0.6,0.2c0.3,0.2,0.5,0.4,0.7,0.6l2.4,2.8c0.2,0.2,0.3,0.4,0.3,0.5c0.1,0.2,0.1,0.3,0.1,0.5
			c0,0.3-0.1,0.6-0.3,0.8C236.7,34,236.5,34.2,236.3,34.4L236.3,34.4z M225.3,15.2c-0.6,0-1.2,0.1-1.7,0.4c-0.6,0.2-1.1,0.6-1.6,0.9
			c-0.5,0.4-0.9,0.9-1.3,1.4c-0.4,0.5-0.7,1-0.9,1.5h11.7c-0.3-0.6-0.7-1.1-1-1.7c-0.4-0.5-0.8-1-1.3-1.3c-0.5-0.4-1.1-0.7-1.6-0.9
			C226.8,15.3,226.1,15.2,225.3,15.2z"/>
	</g>
</g>
<g id="Layer_2">
</g>
</svg>
